<svg id="kity_svg_6" xmlns="http://www.w3.org/2000/svg" xmlns:xlink="http://www.w3.org/1999/xlink" version="1.1" width="1655" height="1564" style="background: rgb(251, 251, 251); visibility: visible;" viewBox="0 0 1655 1564"><defs id="kity_defs_7"><linearGradient id="kity_linearGradient_17" x1="0" y1="0" x2="0" y2="1"><stop id="kity_stop_18" offset="0" stop-color="rgb(255, 255, 255)"></stop><stop id="kity_stop_19" offset="1" stop-color="rgb(204, 204, 204)"></stop></linearGradient><marker id="kity_marker_2" orient="auto" refX="6" refY="0" viewBox="-7 -7 14 14" markerWidth="7" markerHeight="7" markerUnits="userSpaceOnUse"><path id="kity_path_3" fill="rgb(115, 161, 191)" stroke="none" d="M6,0A6,6,0,1,1,-6,0A6,6,0,1,1,6,0"></path></marker></defs><g id="kity_g_8"><g id="minder1" text-rendering="optimize-speed"><g id="minder_connect_group1"><path id="kity_path_31" fill="none" stroke="rgb(115, 161, 191)" stroke-width="1" d="M115,779.5A212.5,0.5,0,0,0,327.5,780"></path><path id="kity_path_33" fill="none" stroke="rgb(115, 161, 191)" stroke-width="1" d="M506.5,780.5C526.5,780,526.5,780.5,546.5,780.5"></path><path id="kity_path_35" fill="none" stroke="rgb(115, 161, 191)" stroke-width="1" d="M754.5,780.5C774.5,780.5,774.5,780.5,794.5,780.5"></path><path id="kity_path_37" fill="none" stroke="rgb(115, 161, 191)" stroke-width="1" d="M898.5,780.5C918.5,780.5,918.5,35.5,938.5,35.5"></path><path id="kity_path_39" fill="none" stroke="rgb(115, 161, 191)" stroke-width="1" d="M898.5,780.5C918.5,780.5,918.5,690.5,938.5,690.5"></path><path id="kity_path_41" fill="none" stroke="rgb(115, 161, 191)" stroke-width="1" d="M1106.5,690.5C1126.5,690.5,1126.5,95.5,1146.5,95.5"></path><path id="kity_path_43" fill="none" stroke="rgb(115, 161, 191)" stroke-width="1" d="M1106.5,690.5C1126.5,690.5,1126.5,155.5,1146.5,155.5"></path><path id="kity_path_45" fill="none" stroke="rgb(115, 161, 191)" stroke-width="1" d="M1106.5,690.5C1126.5,690.5,1126.5,305.5,1146.5,305.5"></path><path id="kity_path_47" fill="none" stroke="rgb(115, 161, 191)" stroke-width="1" d="M1356.5,305.5C1376.5,305.5,1376.5,215.5,1396.5,215.5"></path><path id="kity_path_49" fill="none" stroke="rgb(115, 161, 191)" stroke-width="1" d="M1356.5,305.5C1376.5,305.5,1376.5,275.5,1396.5,275.5"></path><path id="kity_path_51" fill="none" stroke="rgb(115, 161, 191)" stroke-width="1" d="M1356.5,305.5C1376.5,305.5,1376.5,335.5,1396.5,335.5"></path><path id="kity_path_53" fill="none" stroke="rgb(115, 161, 191)" stroke-width="1" d="M1356.5,305.5C1376.5,305.5,1376.5,395.5,1396.5,395.5"></path><path id="kity_path_55" fill="none" stroke="rgb(115, 161, 191)" stroke-width="1" d="M1106.5,690.5C1126.5,690.5,1126.5,455.5,1146.5,455.5"></path><path id="kity_path_57" fill="none" stroke="rgb(115, 161, 191)" stroke-width="1" d="M1106.5,690.5C1126.5,690.5,1126.5,515.5,1146.5,515.5"></path><path id="kity_path_59" fill="none" stroke="rgb(115, 161, 191)" stroke-width="1" d="M1106.5,690.5C1126.5,690.5,1126.5,575.5,1146.5,575.5"></path><path id="kity_path_61" fill="none" stroke="rgb(115, 161, 191)" stroke-width="1" d="M1106.5,690.5C1126.5,690.5,1126.5,635.5,1146.5,635.5"></path><path id="kity_path_63" fill="none" stroke="rgb(115, 161, 191)" stroke-width="1" d="M1106.5,690.5C1126.5,690.5,1126.5,695.5,1146.5,695.5"></path><path id="kity_path_65" fill="none" stroke="rgb(115, 161, 191)" stroke-width="1" d="M1106.5,690.5C1126.5,690.5,1126.5,755.5,1146.5,755.5"></path><path id="kity_path_67" fill="none" stroke="rgb(115, 161, 191)" stroke-width="1" d="M1106.5,690.5C1126.5,690.5,1126.5,814,1146.5,814"></path><path id="kity_path_69" fill="none" stroke="rgb(115, 161, 191)" stroke-width="1" d="M1106.5,690.5C1126.5,690.5,1126.5,868.5,1146.5,868.5"></path><path id="kity_path_71" fill="none" stroke="rgb(115, 161, 191)" stroke-width="1" d="M1106.5,690.5C1126.5,690.5,1126.5,920.5,1146.5,920.5"></path><path id="kity_path_73" fill="none" stroke="rgb(115, 161, 191)" stroke-width="1" d="M1106.5,690.5C1126.5,690.5,1126.5,975,1146.5,975"></path><path id="kity_path_75" fill="none" stroke="rgb(115, 161, 191)" stroke-width="1" d="M1106.5,690.5C1126.5,690.5,1126.5,1029.5,1146.5,1029.5"></path><path id="kity_path_77" fill="none" stroke="rgb(115, 161, 191)" stroke-width="1" d="M1106.5,690.5C1126.5,690.5,1126.5,1081.5,1146.5,1081.5"></path><path id="kity_path_79" fill="none" stroke="rgb(115, 161, 191)" stroke-width="1" d="M1106.5,690.5C1126.5,690.5,1126.5,1133.5,1146.5,1133.5"></path><path id="kity_path_81" fill="none" stroke="rgb(115, 161, 191)" stroke-width="1" d="M1106.5,690.5C1126.5,690.5,1126.5,1185.5,1146.5,1185.5"></path><path id="kity_path_83" fill="none" stroke="rgb(115, 161, 191)" stroke-width="1" d="M1106.5,690.5C1126.5,690.5,1126.5,1237.5,1146.5,1237.5"></path><path id="kity_path_85" fill="none" stroke="rgb(115, 161, 191)" stroke-width="1" d="M1106.5,690.5C1126.5,690.5,1126.5,1289.5,1146.5,1289.5"></path><path id="kity_path_87" fill="none" stroke="rgb(115, 161, 191)" stroke-width="1" d="M898.5,780.5C918.5,780.5,918.5,1405.5,938.5,1405.5"></path><path id="kity_path_89" fill="none" stroke="rgb(115, 161, 191)" stroke-width="1" d="M1093.5,1405.5C1113.5,1405.5,1113.5,1345.5,1133.5,1345.5"></path><path id="kity_path_91" fill="none" stroke="rgb(115, 161, 191)" stroke-width="1" d="M1093.5,1405.5C1113.5,1405.5,1113.5,1405.5,1133.5,1405.5"></path><path id="kity_path_93" fill="none" stroke="rgb(115, 161, 191)" stroke-width="1" d="M1093.5,1405.5C1113.5,1405.5,1113.5,1465.5,1133.5,1465.5"></path><path id="kity_path_95" fill="none" stroke="rgb(115, 161, 191)" stroke-width="1" d="M898.5,780.5C920.5,780.5,920.5,1529.5,942.5,1529.5"></path></g><g id="minder_node1"><path id="node_outline1" fill="rgb(115, 161, 191)" stroke="rgb(115, 161, 191)" d="M25.5,759.5h179a5,5,0,0,1,5,5v30a5,5,0,0,1,-5,5h-179a5,5,0,0,1,-5,-5v-30a5,5,0,0,1,5,-5z" stroke-width="3"></path><g id="node_text1" fill="white"><text id="kity_text_22" text-rendering="inherit" font-size="16" dy=".8em" y="771.5" x="44.5">输入 vapor deploy</text></g></g><g id="kity_g_12"><path id="kity_path_13" fill="none" stroke="none" d="M44.5,779.5h0v0h0z"></path></g><g id="kity_g_14"><path id="kity_path_15" fill="none" stroke="none" d="M44.5,779.5h0v0h0z"></path><path id="kity_path_16" fill="none" stroke="none"></path></g><g id="minder_node2"><g id="node_expander33" style="cursor: pointer;"><path id="kity_path_431" fill="white" stroke="gray" d="M328.5,780A6,6,0,1,1,316.5,780A6,6,0,1,1,328.5,780"></path><path id="kity_path_432" fill="none" stroke="gray" d="M318,780L327,780"></path></g><path id="node_outline34" fill="rgb(238, 243, 246)" stroke="rgb(115, 161, 191)" d="M332.5,765.5h171a3,3,0,0,1,3,3v23a3,3,0,0,1,-3,3h-171a3,3,0,0,1,-3,-3v-23a3,3,0,0,1,3,-3z" stroke-width="1"></path><g id="node_text34" fill="black"><text id="kity_text_161" text-rendering="inherit" font-size="14" dy=".8em" y="772.5" x="349.5">检测用户是否登陆&#xa0;</text></g><g id="kity_g_298" style="cursor: pointer;"><path id="kity_path_299" fill="none" stroke="none" d="M473,771h12a2,2,0,0,1,2,2v13a2,2,0,0,1,-2,2h-12a2,2,0,0,1,-2,-2v-13a2,2,0,0,1,2,-2z"></path><path id="kity_path_300" fill="black" stroke="none" d="M482,782H476V781h6L482,782L482,782zM482,780H476V779h6V780zM482,778H476V777h6V778zM481.5,784H475V775h8v7.5M482,785l2,-2V774H474v11"></path></g></g><g id="minder_node3"><g id="node_expander32" style="cursor: pointer;"><path id="kity_path_428" fill="white" stroke="gray" d="M546.5,780.5A6,6,0,1,1,534.5,780.5A6,6,0,1,1,546.5,780.5"></path><path id="kity_path_429" fill="none" stroke="gray" d="M536,780.5L545,780.5"></path></g><path id="node_outline33" fill="none" stroke="none" d="M551.5,769.5h198a5,5,0,0,1,5,5v12a5,5,0,0,1,-5,5h-198a5,5,0,0,1,-5,-5v-12a5,5,0,0,1,5,-5z"></path><g id="node_text33" fill="black"><text id="kity_text_159" text-rendering="inherit" font-size="12" dy=".8em" y="774.5" x="556.5">向 vapor 后台验证 vapor.yml 信息</text></g></g><g id="minder_node4"><g id="node_expander31" style="cursor: pointer;"><path id="kity_path_425" fill="white" stroke="gray" d="M794.5,780.5A6,6,0,1,1,782.5,780.5A6,6,0,1,1,794.5,780.5"></path><path id="kity_path_426" fill="none" stroke="gray" d="M784,780.5L793,780.5"></path></g><path id="node_outline32" fill="none" stroke="none" d="M799.5,769.5h94a5,5,0,0,1,5,5v12a5,5,0,0,1,-5,5h-94a5,5,0,0,1,-5,-5v-12a5,5,0,0,1,5,-5z"></path><g id="node_text32" fill="black"><text id="kity_text_157" text-rendering="inherit" font-size="12" dy=".8em" y="774.5" x="804.5">打包文件并上传</text></g></g><g id="minder_node5"><g id="node_expander1" display="none" style="cursor: pointer;"><path id="kity_path_335" fill="white" stroke="gray" d="M938.5,35.5A6,6,0,1,1,926.5,35.5A6,6,0,1,1,938.5,35.5"></path><path id="kity_path_336" fill="none" stroke="gray"></path></g><path id="node_outline2" fill="none" stroke="none" d="M943.5,20.5h203a5,5,0,0,1,5,5v20a5,5,0,0,1,-5,5h-203a5,5,0,0,1,-5,-5v-20a5,5,0,0,1,5,-5z"></path><g id="node_text2" fill="black"><text id="kity_text_97" text-rendering="inherit" font-size="12" dy=".8em" y="29.5" x="973.5">&#xa0;获取在平台注册的项目信息</text></g><g id="node_priority1"><path id="kity_path_164" fill="#840023" stroke="none" d="M949,39c0,3.866,3.134,7,7,7h6c3.866,0,7,-3.134,7,-7V33H949V39z"></path><path id="kity_path_165" fill="#FF1200" stroke="none" d="M969,36c0,3.866,-3.134,7,-7,7H956c-3.866,0,-7,-3.134,-7,-7V33c0,-3.866,3.134,-7,7,-7h6c3.866,0,7,3.134,7,7V36z" opacity="0.8"></path><text id="kity_text_166" text-rendering="geometricPrecision" x="958" y="35.5" text-anchor="middle" font-style="italic" font-size="12" fill="white" dy="4">1</text></g><g id="kity_g_262" style="cursor: pointer;"><path id="kity_path_263" fill="none" stroke="none" d="M1128,27h12a2,2,0,0,1,2,2v13a2,2,0,0,1,-2,2h-12a2,2,0,0,1,-2,-2v-13a2,2,0,0,1,2,-2z"></path><path id="kity_path_264" fill="black" stroke="none" d="M1137,38H1131V37h6L1137,38L1137,38zM1137,36H1131V35h6V36zM1137,34H1131V33h6V34zM1136.5,40H1130V31h8v7.5M1137,41l2,-2V30H1129v11"></path></g></g><g id="minder_node6"><g id="node_expander25" style="cursor: pointer;"><path id="kity_path_407" fill="white" stroke="gray" d="M938.5,690.5A6,6,0,1,1,926.5,690.5A6,6,0,1,1,938.5,690.5"></path><path id="kity_path_408" fill="none" stroke="gray" d="M928,690.5L937,690.5"></path></g><path id="node_outline26" fill="none" stroke="none" d="M943.5,675.5h158a5,5,0,0,1,5,5v20a5,5,0,0,1,-5,5h-158a5,5,0,0,1,-5,-5v-20a5,5,0,0,1,5,-5z"></path><g id="node_text26" fill="black"><text id="kity_text_145" text-rendering="inherit" font-size="12" dy=".8em" y="684.5" x="973.5">&#xa0;执行 vapor build 命令</text></g><g id="node_priority15"><path id="kity_path_234" fill="#01467F" stroke="none" d="M949,694c0,3.866,3.134,7,7,7h6c3.866,0,7,-3.134,7,-7V688H949V694z"></path><path id="kity_path_235" fill="#0074FF" stroke="none" d="M969,691c0,3.866,-3.134,7,-7,7H956c-3.866,0,-7,-3.134,-7,-7V688c0,-3.866,3.134,-7,7,-7h6c3.866,0,7,3.134,7,7V691z" opacity="0.8"></path><text id="kity_text_236" text-rendering="geometricPrecision" x="958" y="690.5" text-anchor="middle" font-style="italic" font-size="12" fill="white" dy="4">2</text></g></g><g id="minder_node7"><g id="node_expander2" display="none" style="cursor: pointer;"><path id="kity_path_338" fill="white" stroke="gray" d="M1146.5,95.5A6,6,0,1,1,1134.5,95.5A6,6,0,1,1,1146.5,95.5"></path><path id="kity_path_339" fill="none" stroke="gray"></path></g><path id="node_outline3" fill="none" stroke="none" d="M1151.5,80.5h131a5,5,0,0,1,5,5v20a5,5,0,0,1,-5,5h-131a5,5,0,0,1,-5,-5v-20a5,5,0,0,1,5,-5z"></path><g id="node_text3" fill="black"><text id="kity_text_99" text-rendering="inherit" font-size="12" dy=".8em" y="89.5" x="1181.5">检测用户是否登陆</text></g><g id="node_priority2"><path id="kity_path_169" fill="#840023" stroke="none" d="M1157,99c0,3.866,3.134,7,7,7h6c3.866,0,7,-3.134,7,-7V93H1157V99z"></path><path id="kity_path_170" fill="#FF1200" stroke="none" d="M1177,96c0,3.866,-3.134,7,-7,7H1164c-3.866,0,-7,-3.134,-7,-7V93c0,-3.866,3.134,-7,7,-7h6c3.866,0,7,3.134,7,7V96z" opacity="0.8"></path><text id="kity_text_171" text-rendering="geometricPrecision" x="1166" y="95.5" text-anchor="middle" font-style="italic" font-size="12" fill="white" dy="4">1</text></g></g><g id="minder_node8"><g id="node_expander3" display="none" style="cursor: pointer;"><path id="kity_path_341" fill="white" stroke="gray" d="M1146.5,155.5A6,6,0,1,1,1134.5,155.5A6,6,0,1,1,1146.5,155.5"></path><path id="kity_path_342" fill="none" stroke="gray"></path></g><path id="node_outline4" fill="none" stroke="none" d="M1151.5,140.5h172a5,5,0,0,1,5,5v20a5,5,0,0,1,-5,5h-172a5,5,0,0,1,-5,-5v-20a5,5,0,0,1,5,-5z"></path><g id="node_text4" fill="black"><text id="kity_text_101" text-rendering="inherit" font-size="12" dy=".8em" y="149.5" x="1181.5">检测是否要使用 `docker`</text></g><g id="node_priority3"><path id="kity_path_174" fill="#01467F" stroke="none" d="M1157,159c0,3.866,3.134,7,7,7h6c3.866,0,7,-3.134,7,-7V153H1157V159z"></path><path id="kity_path_175" fill="#0074FF" stroke="none" d="M1177,156c0,3.866,-3.134,7,-7,7H1164c-3.866,0,-7,-3.134,-7,-7V153c0,-3.866,3.134,-7,7,-7h6c3.866,0,7,3.134,7,7V156z" opacity="0.8"></path><text id="kity_text_176" text-rendering="geometricPrecision" x="1166" y="155.5" text-anchor="middle" font-style="italic" font-size="12" fill="white" dy="4">2</text></g></g><g id="minder_node9"><g id="node_expander8" style="cursor: pointer;"><path id="kity_path_356" fill="white" stroke="gray" d="M1146.5,305.5A6,6,0,1,1,1134.5,305.5A6,6,0,1,1,1146.5,305.5"></path><path id="kity_path_357" fill="none" stroke="gray" d="M1136,305.5L1145,305.5"></path></g><path id="node_outline9" fill="none" stroke="none" d="M1151.5,290.5h200a5,5,0,0,1,5,5v20a5,5,0,0,1,-5,5h-200a5,5,0,0,1,-5,-5v-20a5,5,0,0,1,5,-5z"></path><g id="node_text9" fill="black"><text id="kity_text_111" text-rendering="inherit" font-size="12" dy=".8em" y="299.5" x="1181.5">将应用程序复制到构建路径</text></g><g id="node_priority8"><path id="kity_path_199" fill="#006300" stroke="none" d="M1157,309c0,3.866,3.134,7,7,7h6c3.866,0,7,-3.134,7,-7V303H1157V309z"></path><path id="kity_path_200" fill="#00AF00" stroke="none" d="M1177,306c0,3.866,-3.134,7,-7,7H1164c-3.866,0,-7,-3.134,-7,-7V303c0,-3.866,3.134,-7,7,-7h6c3.866,0,7,3.134,7,7V306z" opacity="0.8"></path><text id="kity_text_201" text-rendering="geometricPrecision" x="1166" y="305.5" text-anchor="middle" font-style="italic" font-size="12" fill="white" dy="4">3</text></g><g id="kity_g_271" style="cursor: pointer;"><path id="kity_path_272" fill="none" stroke="none" d="M1333,297h12a2,2,0,0,1,2,2v13a2,2,0,0,1,-2,2h-12a2,2,0,0,1,-2,-2v-13a2,2,0,0,1,2,-2z"></path><path id="kity_path_273" fill="black" stroke="none" d="M1342,308H1336V307h6L1342,308L1342,308zM1342,306H1336V305h6V306zM1342,304H1336V303h6V304zM1341.5,310H1335V301h8v7.5M1342,311l2,-2V300H1334v11"></path></g></g><g id="minder_node10"><g id="node_expander4" display="none" style="cursor: pointer;"><path id="kity_path_344" fill="white" stroke="gray" d="M1396.5,215.5A6,6,0,1,1,1384.5,215.5A6,6,0,1,1,1396.5,215.5"></path><path id="kity_path_345" fill="none" stroke="gray"></path></g><path id="node_outline5" fill="none" stroke="none" d="M1401.5,200.5h140a5,5,0,0,1,5,5v20a5,5,0,0,1,-5,5h-140a5,5,0,0,1,-5,-5v-20a5,5,0,0,1,5,-5z"></path><g id="node_text5" fill="black"><text id="kity_text_103" text-rendering="inherit" font-size="12" dy=".8em" y="209.5" x="1431.5">格式化构建目录</text></g><g id="node_priority4"><path id="kity_path_179" fill="#840023" stroke="none" d="M1407,219c0,3.866,3.134,7,7,7h6c3.866,0,7,-3.134,7,-7V213H1407V219z"></path><path id="kity_path_180" fill="#FF1200" stroke="none" d="M1427,216c0,3.866,-3.134,7,-7,7H1414c-3.866,0,-7,-3.134,-7,-7V213c0,-3.866,3.134,-7,7,-7h6c3.866,0,7,3.134,7,7V216z" opacity="0.8"></path><text id="kity_text_181" text-rendering="geometricPrecision" x="1416" y="215.5" text-anchor="middle" font-style="italic" font-size="12" fill="white" dy="4">1</text></g><g id="kity_g_265" style="cursor: pointer;"><path id="kity_path_266" fill="none" stroke="none" d="M1523,207h12a2,2,0,0,1,2,2v13a2,2,0,0,1,-2,2h-12a2,2,0,0,1,-2,-2v-13a2,2,0,0,1,2,-2z"></path><path id="kity_path_267" fill="black" stroke="none" d="M1532,218H1526V217h6L1532,218L1532,218zM1532,216H1526V215h6V216zM1532,214H1526V213h6V214zM1531.5,220H1525V211h8v7.5M1532,221l2,-2V210H1524v11"></path></g></g><g id="minder_node11"><g id="node_expander5" display="none" style="cursor: pointer;"><path id="kity_path_347" fill="white" stroke="gray" d="M1396.5,275.5A6,6,0,1,1,1384.5,275.5A6,6,0,1,1,1396.5,275.5"></path><path id="kity_path_348" fill="none" stroke="gray"></path></g><path id="node_outline6" fill="none" stroke="none" d="M1401.5,260.5h176a5,5,0,0,1,5,5v20a5,5,0,0,1,-5,5h-176a5,5,0,0,1,-5,-5v-20a5,5,0,0,1,5,-5z"></path><g id="node_text6" fill="black"><text id="kity_text_105" text-rendering="inherit" font-size="12" dy=".8em" y="269.5" x="1431.5">将代码移动到构建目录</text></g><g id="node_priority5"><path id="kity_path_184" fill="#01467F" stroke="none" d="M1407,279c0,3.866,3.134,7,7,7h6c3.866,0,7,-3.134,7,-7V273H1407V279z"></path><path id="kity_path_185" fill="#0074FF" stroke="none" d="M1427,276c0,3.866,-3.134,7,-7,7H1414c-3.866,0,-7,-3.134,-7,-7V273c0,-3.866,3.134,-7,7,-7h6c3.866,0,7,3.134,7,7V276z" opacity="0.8"></path><text id="kity_text_186" text-rendering="geometricPrecision" x="1416" y="275.5" text-anchor="middle" font-style="italic" font-size="12" fill="white" dy="4">2</text></g><g id="kity_g_268" style="cursor: pointer;"><path id="kity_path_269" fill="none" stroke="none" d="M1559,267h12a2,2,0,0,1,2,2v13a2,2,0,0,1,-2,2h-12a2,2,0,0,1,-2,-2v-13a2,2,0,0,1,2,-2z"></path><path id="kity_path_270" fill="black" stroke="none" d="M1568,278H1562V277h6L1568,278L1568,278zM1568,276H1562V275h6V276zM1568,274H1562V273h6V274zM1567.5,280H1561V271h8v7.5M1568,281l2,-2V270H1560v11"></path></g></g><g id="minder_node12"><g id="node_expander6" display="none" style="cursor: pointer;"><path id="kity_path_350" fill="white" stroke="gray" d="M1396.5,335.5A6,6,0,1,1,1384.5,335.5A6,6,0,1,1,1396.5,335.5"></path><path id="kity_path_351" fill="none" stroke="gray"></path></g><path id="node_outline7" fill="none" stroke="none" d="M1401.5,320.5h203a5,5,0,0,1,5,5v20a5,5,0,0,1,-5,5h-203a5,5,0,0,1,-5,-5v-20a5,5,0,0,1,5,-5z"></path><g id="node_text7" fill="black"><text id="kity_text_107" text-rendering="inherit" font-size="12" dy=".8em" y="329.5" x="1431.5">清除构建代码中缓存的配置文件</text></g><g id="node_priority6"><path id="kity_path_189" fill="#006300" stroke="none" d="M1407,339c0,3.866,3.134,7,7,7h6c3.866,0,7,-3.134,7,-7V333H1407V339z"></path><path id="kity_path_190" fill="#00AF00" stroke="none" d="M1427,336c0,3.866,-3.134,7,-7,7H1414c-3.866,0,-7,-3.134,-7,-7V333c0,-3.866,3.134,-7,7,-7h6c3.866,0,7,3.134,7,7V336z" opacity="0.8"></path><text id="kity_text_191" text-rendering="geometricPrecision" x="1416" y="335.5" text-anchor="middle" font-style="italic" font-size="12" fill="white" dy="4">3</text></g></g><g id="minder_node13"><g id="node_expander7" style="cursor: pointer;" display="none"><path id="kity_path_353" fill="white" stroke="gray" d="M1396.5,395.5A6,6,0,1,1,1384.5,395.5A6,6,0,1,1,1396.5,395.5"></path><path id="kity_path_354" fill="none" stroke="gray"></path></g><path id="node_outline8" fill="none" stroke="rgb(57, 80, 96)" d="M1401.5,380.5h229a5,5,0,0,1,5,5v20a5,5,0,0,1,-5,5h-229a5,5,0,0,1,-5,-5v-20a5,5,0,0,1,5,-5z" stroke-width="3"></path><g id="node_text8" fill="black"><text id="kity_text_109" text-rendering="inherit" font-size="12" dy=".8em" y="389.5" x="1431.5">清除构建代码中&#xa0;storage 目录的文件</text></g><g id="node_priority7"><path id="kity_path_194" fill="#B25000" stroke="none" d="M1407,399c0,3.866,3.134,7,7,7h6c3.866,0,7,-3.134,7,-7V393H1407V399z"></path><path id="kity_path_195" fill="#FF962E" stroke="none" d="M1427,396c0,3.866,-3.134,7,-7,7H1414c-3.866,0,-7,-3.134,-7,-7V393c0,-3.866,3.134,-7,7,-7h6c3.866,0,7,3.134,7,7V396z" opacity="0.8"></path><text id="kity_text_196" text-rendering="geometricPrecision" x="1416" y="395.5" text-anchor="middle" font-style="italic" font-size="12" fill="white" dy="4">4</text></g></g><g id="minder_node14"><g id="node_expander9" display="none" style="cursor: pointer;"><path id="kity_path_359" fill="white" stroke="gray" d="M1146.5,455.5A6,6,0,1,1,1134.5,455.5A6,6,0,1,1,1146.5,455.5"></path><path id="kity_path_360" fill="none" stroke="gray"></path></g><path id="node_outline10" fill="none" stroke="none" d="M1151.5,440.5h128a5,5,0,0,1,5,5v20a5,5,0,0,1,-5,5h-128a5,5,0,0,1,-5,-5v-20a5,5,0,0,1,5,-5z"></path><g id="node_text10" fill="black"><text id="kity_text_113" text-rendering="inherit" font-size="12" dy=".8em" y="449.5" x="1181.5">协调配置文件</text></g><g id="node_priority9"><path id="kity_path_204" fill="#B25000" stroke="none" d="M1157,459c0,3.866,3.134,7,7,7h6c3.866,0,7,-3.134,7,-7V453H1157V459z"></path><path id="kity_path_205" fill="#FF962E" stroke="none" d="M1177,456c0,3.866,-3.134,7,-7,7H1164c-3.866,0,-7,-3.134,-7,-7V453c0,-3.866,3.134,-7,7,-7h6c3.866,0,7,3.134,7,7V456z" opacity="0.8"></path><text id="kity_text_206" text-rendering="geometricPrecision" x="1166" y="455.5" text-anchor="middle" font-style="italic" font-size="12" fill="white" dy="4">4</text></g><g id="kity_g_274" style="cursor: pointer;"><path id="kity_path_275" fill="none" stroke="none" d="M1261,447h12a2,2,0,0,1,2,2v13a2,2,0,0,1,-2,2h-12a2,2,0,0,1,-2,-2v-13a2,2,0,0,1,2,-2z"></path><path id="kity_path_276" fill="black" stroke="none" d="M1270,458H1264V457h6L1270,458L1270,458zM1270,456H1264V455h6V456zM1270,454H1264V453h6V454zM1269.5,460H1263V451h8v7.5M1270,461l2,-2V450H1262v11"></path></g></g><g id="minder_node15"><g id="node_expander10" display="none" style="cursor: pointer;"><path id="kity_path_362" fill="white" stroke="gray" d="M1146.5,515.5A6,6,0,1,1,1134.5,515.5A6,6,0,1,1,1146.5,515.5"></path><path id="kity_path_363" fill="none" stroke="gray"></path></g><path id="node_outline11" fill="none" stroke="none" d="M1151.5,500.5h128a5,5,0,0,1,5,5v20a5,5,0,0,1,-5,5h-128a5,5,0,0,1,-5,-5v-20a5,5,0,0,1,5,-5z"></path><g id="node_text11" fill="black"><text id="kity_text_115" text-rendering="inherit" font-size="12" dy=".8em" y="509.5" x="1181.5">设置构建环境</text></g><g id="node_priority10"><path id="kity_path_209" fill="#4720C4" stroke="none" d="M1157,519c0,3.866,3.134,7,7,7h6c3.866,0,7,-3.134,7,-7V513H1157V519z"></path><path id="kity_path_210" fill="#A464FF" stroke="none" d="M1177,516c0,3.866,-3.134,7,-7,7H1164c-3.866,0,-7,-3.134,-7,-7V513c0,-3.866,3.134,-7,7,-7h6c3.866,0,7,3.134,7,7V516z" opacity="0.8"></path><text id="kity_text_211" text-rendering="geometricPrecision" x="1166" y="515.5" text-anchor="middle" font-style="italic" font-size="12" fill="white" dy="4">5</text></g><g id="kity_g_277" style="cursor: pointer;"><path id="kity_path_278" fill="none" stroke="none" d="M1261,507h12a2,2,0,0,1,2,2v13a2,2,0,0,1,-2,2h-12a2,2,0,0,1,-2,-2v-13a2,2,0,0,1,2,-2z"></path><path id="kity_path_279" fill="black" stroke="none" d="M1270,518H1264V517h6L1270,518L1270,518zM1270,516H1264V515h6V516zM1270,514H1264V513h6V514zM1269.5,520H1263V511h8v7.5M1270,521l2,-2V510H1262v11"></path></g></g><g id="minder_node16"><g id="node_expander11" display="none" style="cursor: pointer;"><path id="kity_path_365" fill="white" stroke="gray" d="M1146.5,575.5A6,6,0,1,1,1134.5,575.5A6,6,0,1,1,1146.5,575.5"></path><path id="kity_path_366" fill="none" stroke="gray"></path></g><path id="node_outline12" fill="none" stroke="none" d="M1151.5,560.5h128a5,5,0,0,1,5,5v20a5,5,0,0,1,-5,5h-128a5,5,0,0,1,-5,-5v-20a5,5,0,0,1,5,-5z"></path><g id="node_text12" fill="black"><text id="kity_text_117" text-rendering="inherit" font-size="12" dy=".8em" y="569.5" x="1181.5">执行构建命令</text></g><g id="node_priority11"><path id="kity_path_214" fill="#515151" stroke="none" d="M1157,579c0,3.866,3.134,7,7,7h6c3.866,0,7,-3.134,7,-7V573H1157V579z"></path><path id="kity_path_215" fill="#A3A3A3" stroke="none" d="M1177,576c0,3.866,-3.134,7,-7,7H1164c-3.866,0,-7,-3.134,-7,-7V573c0,-3.866,3.134,-7,7,-7h6c3.866,0,7,3.134,7,7V576z" opacity="0.8"></path><text id="kity_text_216" text-rendering="geometricPrecision" x="1166" y="575.5" text-anchor="middle" font-style="italic" font-size="12" fill="white" dy="4">6</text></g><g id="kity_g_280" style="cursor: pointer;"><path id="kity_path_281" fill="none" stroke="none" d="M1261,567h12a2,2,0,0,1,2,2v13a2,2,0,0,1,-2,2h-12a2,2,0,0,1,-2,-2v-13a2,2,0,0,1,2,-2z"></path><path id="kity_path_282" fill="black" stroke="none" d="M1270,578H1264V577h6L1270,578L1270,578zM1270,576H1264V575h6V576zM1270,574H1264V573h6V574zM1269.5,580H1263V571h8v7.5M1270,581l2,-2V570H1262v11"></path></g></g><g id="minder_node17"><g id="node_expander12" display="none" style="cursor: pointer;"><path id="kity_path_368" fill="white" stroke="gray" d="M1146.5,635.5A6,6,0,1,1,1134.5,635.5A6,6,0,1,1,1146.5,635.5"></path><path id="kity_path_369" fill="none" stroke="gray"></path></g><path id="node_outline13" fill="none" stroke="none" d="M1151.5,620.5h169a5,5,0,0,1,5,5v20a5,5,0,0,1,-5,5h-169a5,5,0,0,1,-5,-5v-20a5,5,0,0,1,5,-5z"></path><g id="node_text13" fill="black"><text id="kity_text_119" text-rendering="inherit" font-size="12" dy=".8em" y="629.5" x="1181.5">artisan 配置文件修改</text></g><g id="node_priority12"><path id="kity_path_219" fill="#515151" stroke="none" d="M1157,639c0,3.866,3.134,7,7,7h6c3.866,0,7,-3.134,7,-7V633H1157V639z"></path><path id="kity_path_220" fill="#A3A3A3" stroke="none" d="M1177,636c0,3.866,-3.134,7,-7,7H1164c-3.866,0,-7,-3.134,-7,-7V633c0,-3.866,3.134,-7,7,-7h6c3.866,0,7,3.134,7,7V636z" opacity="0.8"></path><text id="kity_text_221" text-rendering="geometricPrecision" x="1166" y="635.5" text-anchor="middle" font-style="italic" font-size="12" fill="white" dy="4">7</text></g><g id="kity_g_283" style="cursor: pointer;"><path id="kity_path_284" fill="none" stroke="none" d="M1302,627h12a2,2,0,0,1,2,2v13a2,2,0,0,1,-2,2h-12a2,2,0,0,1,-2,-2v-13a2,2,0,0,1,2,-2z"></path><path id="kity_path_285" fill="black" stroke="none" d="M1311,638H1305V637h6L1311,638L1311,638zM1311,636H1305V635h6V636zM1311,634H1305V633h6V634zM1310.5,640H1304V631h8v7.5M1311,641l2,-2V630H1303v11"></path></g></g><g id="minder_node18"><g id="node_expander13" display="none" style="cursor: pointer;"><path id="kity_path_371" fill="white" stroke="gray" d="M1146.5,695.5A6,6,0,1,1,1134.5,695.5A6,6,0,1,1,1146.5,695.5"></path><path id="kity_path_372" fill="none" stroke="gray"></path></g><path id="node_outline14" fill="none" stroke="none" d="M1151.5,680.5h201a5,5,0,0,1,5,5v20a5,5,0,0,1,-5,5h-201a5,5,0,0,1,-5,-5v-20a5,5,0,0,1,5,-5z"></path><g id="node_text14" fill="black"><text id="kity_text_121" text-rendering="inherit" font-size="12" dy=".8em" y="689.5" x="1181.5">配置Composer自动加载器</text></g><g id="node_priority13"><path id="kity_path_224" fill="#515151" stroke="none" d="M1157,699c0,3.866,3.134,7,7,7h6c3.866,0,7,-3.134,7,-7V693H1157V699z"></path><path id="kity_path_225" fill="#A3A3A3" stroke="none" d="M1177,696c0,3.866,-3.134,7,-7,7H1164c-3.866,0,-7,-3.134,-7,-7V693c0,-3.866,3.134,-7,7,-7h6c3.866,0,7,3.134,7,7V696z" opacity="0.8"></path><text id="kity_text_226" text-rendering="geometricPrecision" x="1166" y="695.5" text-anchor="middle" font-style="italic" font-size="12" fill="white" dy="4">8</text></g><g id="kity_g_286" style="cursor: pointer;"><path id="kity_path_287" fill="none" stroke="none" d="M1334,687h12a2,2,0,0,1,2,2v13a2,2,0,0,1,-2,2h-12a2,2,0,0,1,-2,-2v-13a2,2,0,0,1,2,-2z"></path><path id="kity_path_288" fill="black" stroke="none" d="M1343,698H1337V697h6L1343,698L1343,698zM1343,696H1337V695h6V696zM1343,694H1337V693h6V694zM1342.5,700H1336V691h8v7.5M1343,701l2,-2V690H1335v11"></path></g></g><g id="minder_node19"><g id="node_expander14" display="none" style="cursor: pointer;"><path id="kity_path_374" fill="white" stroke="gray" d="M1146.5,755.5A6,6,0,1,1,1134.5,755.5A6,6,0,1,1,1146.5,755.5"></path><path id="kity_path_375" fill="none" stroke="gray"></path></g><path id="node_outline15" fill="none" stroke="none" d="M1151.5,740.5h176a5,5,0,0,1,5,5v20a5,5,0,0,1,-5,5h-176a5,5,0,0,1,-5,-5v-20a5,5,0,0,1,5,-5z"></path><g id="node_text15" fill="black"><text id="kity_text_123" text-rendering="inherit" font-size="12" dy=".8em" y="749.5" x="1181.5">移除一些不必要的文件</text></g><g id="node_priority14"><path id="kity_path_229" fill="#515151" stroke="none" d="M1157,759c0,3.866,3.134,7,7,7h6c3.866,0,7,-3.134,7,-7V753H1157V759z"></path><path id="kity_path_230" fill="#A3A3A3" stroke="none" d="M1177,756c0,3.866,-3.134,7,-7,7H1164c-3.866,0,-7,-3.134,-7,-7V753c0,-3.866,3.134,-7,7,-7h6c3.866,0,7,3.134,7,7V756z" opacity="0.8"></path><text id="kity_text_231" text-rendering="geometricPrecision" x="1166" y="755.5" text-anchor="middle" font-style="italic" font-size="12" fill="white" dy="4">9</text></g><g id="kity_g_289" style="cursor: pointer;"><path id="kity_path_290" fill="none" stroke="none" d="M1309,747h12a2,2,0,0,1,2,2v13a2,2,0,0,1,-2,2h-12a2,2,0,0,1,-2,-2v-13a2,2,0,0,1,2,-2z"></path><path id="kity_path_291" fill="black" stroke="none" d="M1318,758H1312V757h6L1318,758L1318,758zM1318,756H1312V755h6V756zM1318,754H1312V753h6V754zM1317.5,760H1311V751h8v7.5M1318,761l2,-2V750H1310v11"></path></g></g><g id="minder_node20"><g id="node_expander15" display="none" style="cursor: pointer;"><path id="kity_path_377" fill="white" stroke="gray" d="M1146.5,814A6,6,0,1,1,1134.5,814A6,6,0,1,1,1146.5,814"></path><path id="kity_path_378" fill="none" stroke="gray"></path></g><path id="node_outline16" fill="none" stroke="none" d="M1151.5,800.5h208a5,5,0,0,1,5,5v17a5,5,0,0,1,-5,5h-208a5,5,0,0,1,-5,-5v-17a5,5,0,0,1,5,-5z"></path><g id="node_text16" fill="black"><text id="kity_text_125" text-rendering="inherit" font-size="12" dy=".8em" y="807.5" x="1156.5">10&#xa0; 移除&#xa0;platform_check 的内容</text></g><g id="kity_g_292" style="cursor: pointer;"><path id="kity_path_293" fill="none" stroke="none" d="M1341,805h12a2,2,0,0,1,2,2v13a2,2,0,0,1,-2,2h-12a2,2,0,0,1,-2,-2v-13a2,2,0,0,1,2,-2z"></path><path id="kity_path_294" fill="black" stroke="none" d="M1350,816H1344V815h6L1350,816L1350,816zM1350,814H1344V813h6V814zM1350,812H1344V811h6V812zM1349.5,818H1343V809h8v7.5M1350,819l2,-2V808H1342v11"></path></g></g><g id="minder_node21"><g id="node_expander16" display="none" style="cursor: pointer;"><path id="kity_path_380" fill="white" stroke="gray" d="M1146.5,868.5A6,6,0,1,1,1134.5,868.5A6,6,0,1,1,1146.5,868.5"></path><path id="kity_path_381" fill="none" stroke="gray"></path></g><path id="node_outline17" fill="none" stroke="none" d="M1151.5,857.5h241a5,5,0,0,1,5,5v12a5,5,0,0,1,-5,5h-241a5,5,0,0,1,-5,-5v-12a5,5,0,0,1,5,-5z"></path><g id="node_text17" fill="black"><text id="kity_text_127" text-rendering="inherit" font-size="12" dy=".8em" y="862.5" x="1156.5">11 public 下面的 css 本地路径替换为 cdn&#xa0;&#xa0;</text></g></g><g id="minder_node22"><g id="node_expander17" display="none" style="cursor: pointer;"><path id="kity_path_383" fill="white" stroke="gray" d="M1146.5,920.5A6,6,0,1,1,1134.5,920.5A6,6,0,1,1,1146.5,920.5"></path><path id="kity_path_384" fill="none" stroke="gray"></path></g><path id="node_outline18" fill="none" stroke="none" d="M1151.5,909.5h301a5,5,0,0,1,5,5v12a5,5,0,0,1,-5,5h-301a5,5,0,0,1,-5,-5v-12a5,5,0,0,1,5,-5z"></path><g id="node_text18" fill="black"><text id="kity_text_129" text-rendering="inherit" font-size="12" dy=".8em" y="914.5" x="1156.5">12 删除构建项目的 public 的资源文件放到&#xa0;assets 目录</text></g></g><g id="minder_node23"><g id="node_expander18" display="none" style="cursor: pointer;"><path id="kity_path_386" fill="white" stroke="gray" d="M1146.5,975A6,6,0,1,1,1134.5,975A6,6,0,1,1,1146.5,975"></path><path id="kity_path_387" fill="none" stroke="gray"></path></g><path id="node_outline19" fill="none" stroke="none" d="M1151.5,961.5h203a5,5,0,0,1,5,5v17a5,5,0,0,1,-5,5h-203a5,5,0,0,1,-5,-5v-17a5,5,0,0,1,5,-5z"></path><g id="node_text19" fill="black"><text id="kity_text_131" text-rendering="inherit" font-size="12" dy=".8em" y="968.5" x="1156.5">13 注入 serverless 处理函数文件</text></g><g id="kity_g_295" style="cursor: pointer;"><path id="kity_path_296" fill="none" stroke="none" d="M1336,966h12a2,2,0,0,1,2,2v13a2,2,0,0,1,-2,2h-12a2,2,0,0,1,-2,-2v-13a2,2,0,0,1,2,-2z"></path><path id="kity_path_297" fill="black" stroke="none" d="M1345,977H1339V976h6L1345,977L1345,977zM1345,975H1339V974h6V975zM1345,973H1339V972h6V973zM1344.5,979H1338V970h8v7.5M1345,980l2,-2V969H1337v11"></path></g></g><g id="minder_node24"><g id="node_expander19" display="none" style="cursor: pointer;"><path id="kity_path_389" fill="white" stroke="gray" d="M1146.5,1029.5A6,6,0,1,1,1134.5,1029.5A6,6,0,1,1,1146.5,1029.5"></path><path id="kity_path_390" fill="none" stroke="gray"></path></g><path id="node_outline20" fill="none" stroke="none" d="M1151.5,1018.5h330a5,5,0,0,1,5,5v12a5,5,0,0,1,-5,5h-330a5,5,0,0,1,-5,-5v-12a5,5,0,0,1,5,-5z"></path><g id="node_text20" fill="black"><text id="kity_text_133" text-rendering="inherit" font-size="12" dy=".8em" y="1023.5" x="1156.5">14 收集后台设置的&#xa0;Secrets&#xa0; 保存到&#xa0;vaporSecrets.php 文件</text></g></g><g id="minder_node25"><g id="node_expander20" display="none" style="cursor: pointer;"><path id="kity_path_392" fill="white" stroke="gray" d="M1146.5,1081.5A6,6,0,1,1,1134.5,1081.5A6,6,0,1,1,1146.5,1081.5"></path><path id="kity_path_393" fill="none" stroke="gray"></path></g><path id="node_outline21" fill="none" stroke="none" d="M1151.5,1070.5h124a5,5,0,0,1,5,5v12a5,5,0,0,1,-5,5h-124a5,5,0,0,1,-5,-5v-12a5,5,0,0,1,5,-5z"></path><g id="node_text21" fill="black"><text id="kity_text_135" text-rendering="inherit" font-size="12" dy=".8em" y="1075.5" x="1156.5">15 注入 503 错误页面</text></g></g><g id="minder_node26"><g id="node_expander21" display="none" style="cursor: pointer;"><path id="kity_path_395" fill="white" stroke="gray" d="M1146.5,1133.5A6,6,0,1,1,1134.5,1133.5A6,6,0,1,1,1146.5,1133.5"></path><path id="kity_path_396" fill="none" stroke="gray"></path></g><path id="node_outline22" fill="none" stroke="none" d="M1151.5,1122.5h97a5,5,0,0,1,5,5v12a5,5,0,0,1,-5,5h-97a5,5,0,0,1,-5,-5v-12a5,5,0,0,1,5,-5z"></path><g id="node_text22" fill="black"><text id="kity_text_137" text-rendering="inherit" font-size="12" dy=".8em" y="1127.5" x="1156.5">16 注入 rds 证书</text></g></g><g id="minder_node27"><g id="node_expander22" display="none" style="cursor: pointer;"><path id="kity_path_398" fill="white" stroke="gray" d="M1146.5,1185.5A6,6,0,1,1,1134.5,1185.5A6,6,0,1,1,1146.5,1185.5"></path><path id="kity_path_399" fill="none" stroke="gray"></path></g><path id="node_outline23" fill="none" stroke="none" d="M1151.5,1174.5h283a5,5,0,0,1,5,5v12a5,5,0,0,1,-5,5h-283a5,5,0,0,1,-5,-5v-12a5,5,0,0,1,5,-5z"></path><g id="node_text23" fill="black"><text id="kity_text_139" text-rendering="inherit" font-size="12" dy=".8em" y="1179.5" x="1156.5">17 将vendor 目录移动到项目外的构建目录 vendor</text></g></g><g id="minder_node28"><g id="node_expander23" display="none" style="cursor: pointer;"><path id="kity_path_401" fill="white" stroke="gray" d="M1146.5,1237.5A6,6,0,1,1,1134.5,1237.5A6,6,0,1,1,1146.5,1237.5"></path><path id="kity_path_402" fill="none" stroke="gray"></path></g><path id="node_outline24" fill="none" stroke="none" d="M1151.5,1226.5h98a5,5,0,0,1,5,5v12a5,5,0,0,1,-5,5h-98a5,5,0,0,1,-5,-5v-12a5,5,0,0,1,5,-5z"></path><g id="node_text24" fill="black"><text id="kity_text_141" text-rendering="inherit" font-size="12" dy=".8em" y="1231.5" x="1156.5">18 压缩构建项目</text></g></g><g id="minder_node29"><g id="node_expander24" display="none" style="cursor: pointer;"><path id="kity_path_404" fill="white" stroke="gray" d="M1146.5,1289.5A6,6,0,1,1,1134.5,1289.5A6,6,0,1,1,1146.5,1289.5"></path><path id="kity_path_405" fill="none" stroke="gray"></path></g><path id="node_outline25" fill="none" stroke="none" d="M1151.5,1278.5h119a5,5,0,0,1,5,5v12a5,5,0,0,1,-5,5h-119a5,5,0,0,1,-5,-5v-12a5,5,0,0,1,5,-5z"></path><g id="node_text25" fill="black"><text id="kity_text_143" text-rendering="inherit" font-size="12" dy=".8em" y="1283.5" x="1156.5">19 压缩vendor 目录</text></g></g><g id="minder_node30"><g id="node_expander29" style="cursor: pointer;"><path id="kity_path_419" fill="white" stroke="gray" d="M938.5,1405.5A6,6,0,1,1,926.5,1405.5A6,6,0,1,1,938.5,1405.5"></path><path id="kity_path_420" fill="none" stroke="gray" d="M928,1405.5L937,1405.5"></path></g><path id="node_outline30" fill="none" stroke="none" d="M943.5,1390.5h145a5,5,0,0,1,5,5v20a5,5,0,0,1,-5,5h-145a5,5,0,0,1,-5,-5v-20a5,5,0,0,1,5,-5z"></path><g id="node_text30" fill="black"><text id="kity_text_153" text-rendering="inherit" font-size="12" dy=".8em" y="1399.5" x="973.5">上传部署文件到 aws</text></g><g id="node_priority19"><path id="kity_path_254" fill="#006300" stroke="none" d="M949,1409c0,3.866,3.134,7,7,7h6c3.866,0,7,-3.134,7,-7V1403H949V1409z"></path><path id="kity_path_255" fill="#00AF00" stroke="none" d="M969,1406c0,3.866,-3.134,7,-7,7H956c-3.866,0,-7,-3.134,-7,-7V1403c0,-3.866,3.134,-7,7,-7h6c3.866,0,7,3.134,7,7V1406z" opacity="0.8"></path><text id="kity_text_256" text-rendering="geometricPrecision" x="958" y="1405.5" text-anchor="middle" font-style="italic" font-size="12" fill="white" dy="4">3</text></g></g><g id="minder_node31"><g id="node_expander26" display="none" style="cursor: pointer;"><path id="kity_path_410" fill="white" stroke="gray" d="M1133.5,1345.5A6,6,0,1,1,1121.5,1345.5A6,6,0,1,1,1133.5,1345.5"></path><path id="kity_path_411" fill="none" stroke="gray"></path></g><path id="node_outline27" fill="none" stroke="none" d="M1138.5,1330.5h232a5,5,0,0,1,5,5v20a5,5,0,0,1,-5,5h-232a5,5,0,0,1,-5,-5v-20a5,5,0,0,1,5,-5z"></path><g id="node_text27" fill="black"><text id="kity_text_147" text-rendering="inherit" font-size="12" dy=".8em" y="1339.5" x="1168.5">将部署代码的信息上传到 vapor 平台</text></g><g id="node_priority16"><path id="kity_path_239" fill="#840023" stroke="none" d="M1144,1349c0,3.866,3.134,7,7,7h6c3.866,0,7,-3.134,7,-7V1343H1144V1349z"></path><path id="kity_path_240" fill="#FF1200" stroke="none" d="M1164,1346c0,3.866,-3.134,7,-7,7H1151c-3.866,0,-7,-3.134,-7,-7V1343c0,-3.866,3.134,-7,7,-7h6c3.866,0,7,3.134,7,7V1346z" opacity="0.8"></path><text id="kity_text_241" text-rendering="geometricPrecision" x="1153" y="1345.5" text-anchor="middle" font-style="italic" font-size="12" fill="white" dy="4">1</text></g></g><g id="minder_node32"><g id="node_expander27" display="none" style="cursor: pointer;"><path id="kity_path_413" fill="white" stroke="gray" d="M1133.5,1405.5A6,6,0,1,1,1121.5,1405.5A6,6,0,1,1,1133.5,1405.5"></path><path id="kity_path_414" fill="none" stroke="gray"></path></g><path id="node_outline28" fill="none" stroke="none" d="M1138.5,1390.5h121a5,5,0,0,1,5,5v20a5,5,0,0,1,-5,5h-121a5,5,0,0,1,-5,-5v-20a5,5,0,0,1,5,-5z"></path><g id="node_text28" fill="black"><text id="kity_text_149" text-rendering="inherit" font-size="12" dy=".8em" y="1399.5" x="1168.5">代码部署到 aws</text></g><g id="node_priority17"><path id="kity_path_244" fill="#01467F" stroke="none" d="M1144,1409c0,3.866,3.134,7,7,7h6c3.866,0,7,-3.134,7,-7V1403H1144V1409z"></path><path id="kity_path_245" fill="#0074FF" stroke="none" d="M1164,1406c0,3.866,-3.134,7,-7,7H1151c-3.866,0,-7,-3.134,-7,-7V1403c0,-3.866,3.134,-7,7,-7h6c3.866,0,7,3.134,7,7V1406z" opacity="0.8"></path><text id="kity_text_246" text-rendering="geometricPrecision" x="1153" y="1405.5" text-anchor="middle" font-style="italic" font-size="12" fill="white" dy="4">2</text></g></g><g id="minder_node33"><g id="node_expander28" display="none" style="cursor: pointer;"><path id="kity_path_416" fill="white" stroke="gray" d="M1133.5,1465.5A6,6,0,1,1,1121.5,1465.5A6,6,0,1,1,1133.5,1465.5"></path><path id="kity_path_417" fill="none" stroke="gray"></path></g><path id="node_outline29" fill="none" stroke="none" d="M1138.5,1450.5h233a5,5,0,0,1,5,5v20a5,5,0,0,1,-5,5h-233a5,5,0,0,1,-5,-5v-20a5,5,0,0,1,5,-5z"></path><g id="node_text29" fill="black"><text id="kity_text_151" text-rendering="inherit" font-size="12" dy=".8em" y="1459.5" x="1168.5">部署aws 成功上传信息到 vapor 平台</text></g><g id="node_priority18"><path id="kity_path_249" fill="#006300" stroke="none" d="M1144,1469c0,3.866,3.134,7,7,7h6c3.866,0,7,-3.134,7,-7V1463H1144V1469z"></path><path id="kity_path_250" fill="#00AF00" stroke="none" d="M1164,1466c0,3.866,-3.134,7,-7,7H1151c-3.866,0,-7,-3.134,-7,-7V1463c0,-3.866,3.134,-7,7,-7h6c3.866,0,7,3.134,7,7V1466z" opacity="0.8"></path><text id="kity_text_251" text-rendering="geometricPrecision" x="1153" y="1465.5" text-anchor="middle" font-style="italic" font-size="12" fill="white" dy="4">3</text></g></g><g id="minder_node34"><g id="node_expander30" display="none" style="cursor: pointer;"><path id="kity_path_422" fill="white" stroke="gray" d="M942.5,1529.5A6,6,0,1,1,930.5,1529.5A6,6,0,1,1,942.5,1529.5"></path><path id="kity_path_423" fill="none" stroke="gray"></path></g><path id="node_outline31" fill="none" stroke="none" d="M947.5,1514.5h169a5,5,0,0,1,5,5v20a5,5,0,0,1,-5,5h-169a5,5,0,0,1,-5,-5v-20a5,5,0,0,1,5,-5z"></path><g id="node_text31" fill="black"><text id="kity_text_155" text-rendering="inherit" font-size="12" dy=".8em" y="1523.5" x="977.5">静态资源文件上传到 aws</text></g><g id="node_priority20"><path id="kity_path_259" fill="#B25000" stroke="none" d="M953,1533c0,3.866,3.134,7,7,7h6c3.866,0,7,-3.134,7,-7V1527H953V1533z"></path><path id="kity_path_260" fill="#FF962E" stroke="none" d="M973,1530c0,3.866,-3.134,7,-7,7H960c-3.866,0,-7,-3.134,-7,-7V1527c0,-3.866,3.134,-7,7,-7h6c3.866,0,7,3.134,7,7V1530z" opacity="0.8"></path><text id="kity_text_261" text-rendering="geometricPrecision" x="962" y="1529.5" text-anchor="middle" font-style="italic" font-size="12" fill="white" dy="4">4</text></g></g></g></g></svg>